<svg width="200" height="200" viewBox="0 0 200 200" fill="none" xmlns="http://www.w3.org/2000/svg">
<circle cx="100" cy="100" r="100" fill="url(#paint0_linear_201_3)"/>
<circle cx="100" cy="100" r="75" fill="white"/>
<path d="M66.6733 55.92H133.393C135.953 55.92 137.833 56.24 139.033 56.88C140.233 57.44 141.033 58.36 141.433 59.64C141.833 60.92 142.033 62.6 142.033 64.68C142.033 66.76 141.833 68.44 141.433 69.72C141.033 70.92 140.353 71.76 139.393 72.24C137.953 72.96 135.913 73.32 133.273 73.32H110.353V133.68C110.353 135.52 110.273 136.88 110.113 137.76C110.033 138.64 109.673 139.68 109.033 140.88C108.473 142 107.433 142.8 105.913 143.28C104.393 143.76 102.393 144 99.9133 144C97.4333 144 95.4333 143.76 93.9133 143.28C92.4733 142.8 91.4333 142 90.7933 140.88C90.2333 139.68 89.8733 138.64 89.7133 137.76C89.6333 136.8 89.5933 135.4 89.5933 133.56V73.32H66.5533C63.9933 73.32 62.1133 73.04 60.9133 72.48C59.7133 71.84 58.9133 70.88 58.5133 69.6C58.1133 68.32 57.9133 66.64 57.9133 64.56C57.9133 62.48 58.1133 60.84 58.5133 59.64C58.9133 58.36 59.5933 57.48 60.5533 57C61.9933 56.28 64.0333 55.92 66.6733 55.92Z" fill="#21262D"/>
<defs>
<linearGradient id="paint0_linear_201_3" x1="21" y1="43" x2="172" y2="163" gradientUnits="userSpaceOnUse">
<stop stop-color="#FF33D3"/>
<stop offset="0.484375" stop-color="#3CDBC0"/>
<stop offset="1" stop-color="#FF33D3"/>
</linearGradient>
</defs>
</svg>
