<svg width="212" height="200" viewBox="0 0 212 200" fill="none" xmlns="http://www.w3.org/2000/svg">
<circle cx="106" cy="100" r="100" fill="url(#paint0_linear_101_6)"/>
<circle cx="106" cy="100" r="75" fill="white"/>
<path d="M72.6733 56.92H139.393C141.953 56.92 143.833 57.24 145.033 57.88C146.233 58.44 147.033 59.36 147.433 60.64C147.833 61.92 148.033 63.6 148.033 65.68C148.033 67.76 147.833 69.44 147.433 70.72C147.033 71.92 146.353 72.76 145.393 73.24C143.953 73.96 141.913 74.32 139.273 74.32H116.353V134.68C116.353 136.52 116.273 137.88 116.113 138.76C116.033 139.64 115.673 140.68 115.033 141.88C114.473 143 113.433 143.8 111.913 144.28C110.393 144.76 108.393 145 105.913 145C103.433 145 101.433 144.76 99.9133 144.28C98.4733 143.8 97.4333 143 96.7933 141.88C96.2333 140.68 95.8733 139.64 95.7133 138.76C95.6333 137.8 95.5933 136.4 95.5933 134.56V74.32H72.5533C69.9933 74.32 68.1133 74.04 66.9133 73.48C65.7133 72.84 64.9133 71.88 64.5133 70.6C64.1133 69.32 63.9133 67.64 63.9133 65.56C63.9133 63.48 64.1133 61.84 64.5133 60.64C64.9133 59.36 65.5933 58.48 66.5533 58C67.9933 57.28 70.0333 56.92 72.6733 56.92Z" fill="#172774"/>
<defs>
<linearGradient id="paint0_linear_101_6" x1="27" y1="43" x2="178" y2="163" gradientUnits="userSpaceOnUse">
<stop stop-color="#FF0075"/>
<stop offset="0.484375" stop-color="#172774"/>
<stop offset="1" stop-color="#77D970"/>
</linearGradient>
</defs>
</svg>
